<svg xmlns="http://www.w3.org/2000/svg" width="40" height="40" viewBox="0 0 40 40" fill="none">
    <path opacity="0.78" fill-rule="evenodd" clip-rule="evenodd" d="M6 20C6 18.8954 6.89543 18 8 18H12C13.1046 18 14 18.8954 14 20C14 21.1046 13.1046 22 12 22H8C6.89543 22 6 21.1046 6 20Z" fill="#A8ADBD"/>
    <path opacity="0.62" fill-rule="evenodd" clip-rule="evenodd" d="M18 28C18 26.8954 18.8954 26 20 26C21.1046 26 22 26.8954 22 28V32C22 33.1046 21.1046 34 20 34C18.8954 34 18 33.1046 18 32V28Z" fill="#A8ADBD"/>
    <path opacity="0.38" fill-rule="evenodd" clip-rule="evenodd" d="M26 20C26 18.8954 26.8954 18 28 18H32C33.1046 18 34 18.8954 34 20C34 21.1046 33.1046 22 32 22H28C26.8954 22 26 21.1046 26 20Z" fill="#A8ADBD"/>
    <path fill-rule="evenodd" clip-rule="evenodd" d="M18 8C18 6.89543 18.8954 6 20 6C21.1046 6 22 6.89543 22 8V12C22 13.1046 21.1046 14 20 14C18.8954 14 18 13.1046 18 12V8Z" fill="#A8ADBD"/>
    <path opacity="0.93" fill-rule="evenodd" clip-rule="evenodd" d="M10.1014 10.1005C10.8825 9.31944 12.1488 9.31944 12.9298 10.1005L15.7583 12.9289C16.5393 13.71 16.5393 14.9763 15.7583 15.7573C14.9772 16.5384 13.7109 16.5384 12.9298 15.7573L10.1014 12.9289C9.32036 12.1479 9.32036 10.8815 10.1014 10.1005Z" fill="#A8ADBD"/>
    <rect opacity="0.69" x="14.3438" y="22.8284" width="4" height="8" rx="2" transform="rotate(45 14.3438 22.8284)" fill="#A8ADBD"/>
    <path opacity="0.48" fill-rule="evenodd" clip-rule="evenodd" d="M24.242 24.2426C25.0231 23.4616 26.2894 23.4616 27.0705 24.2426L29.8989 27.0711C30.6799 27.8521 30.6799 29.1184 29.8989 29.8995C29.1178 30.6805 27.8515 30.6805 27.0705 29.8995L24.242 27.0711C23.461 26.29 23.461 25.0237 24.242 24.2426Z" fill="#A8ADBD"/>
    <path opacity="0.3" fill-rule="evenodd" clip-rule="evenodd" d="M27.0702 10.1005C27.8512 9.31944 29.1175 9.31944 29.8986 10.1005C30.6796 10.8815 30.6796 12.1479 29.8986 12.9289L27.0702 15.7573C26.2891 16.5384 25.0228 16.5384 24.2417 15.7573C23.4607 14.9763 23.4607 13.71 24.2417 12.9289L27.0702 10.1005Z" fill="#A8ADBD"/>
</svg>